<svg xmlns="http://www.w3.org/2000/svg" xmlns:xlink="http://www.w3.org/1999/xlink" version="1.1" x="0px" y="0px" viewBox="0 0 96 120" enable-background="new 0 0 96 96" xml:space="preserve"><path d="M48.349,45.07c-0.618,0.075-1.244,0.112-1.872,0.13c-0.1,0.003-0.199,0.007-0.299,0.009  c-0.092,0.001-0.183,0.008-0.274,0.008c-0.521,0-1.035-0.031-1.548-0.071c-0.038-0.003-0.075-0.003-0.113-0.006  c-0.636-0.054-1.267-0.133-1.891-0.244c-0.176-0.031-0.349-0.071-0.524-0.107c-0.438-0.09-0.872-0.193-1.301-0.313  c-0.113-0.031-0.232-0.05-0.344-0.083c-0.917,2.072-2.2,3.995-3.773,5.658c4.473-0.188,8.694-1.959,11.942-4.979  C48.351,45.07,48.35,45.07,48.349,45.07z"/><path d="M40.759,42.984c0.198,0.058,0.394,0.118,0.594,0.168c0.228,0.058,0.46,0.103,0.691,0.151c0.19,0.04,0.38,0.084,0.572,0.118  c0.237,0.042,0.476,0.071,0.714,0.104c0.192,0.026,0.383,0.058,0.576,0.078c0.236,0.024,0.472,0.037,0.708,0.054  c0.198,0.013,0.395,0.032,0.593,0.04c0.233,0.009,0.466,0.004,0.699,0.005c0.2,0,0.4,0.006,0.601,0  c0.237-0.007,0.472-0.028,0.708-0.044c0.194-0.014,0.389-0.02,0.581-0.039c0.258-0.025,0.513-0.065,0.768-0.103  c0.167-0.023,0.335-0.039,0.5-0.067c0.418-0.071,0.832-0.157,1.238-0.258c8.439-2.033,14.329-9.519,14.329-18.204  c0-10.332-8.401-18.738-18.728-18.738c-5.524,0-10.733,2.417-14.292,6.633c-1.304,1.521-2.336,3.229-3.072,5.08  c-0.164,0.4-0.296,0.81-0.431,1.218c-0.055,0.166-0.123,0.328-0.173,0.496c-0.167,0.561-0.308,1.129-0.421,1.704  c-0.027,0.139-0.038,0.28-0.063,0.419c-0.076,0.44-0.148,0.88-0.192,1.326c-0.021,0.222-0.022,0.447-0.037,0.67  c-0.025,0.396-0.057,0.791-0.057,1.192c0,8.091,5.155,15.231,12.827,17.769C40.244,42.842,40.503,42.911,40.759,42.984z   M50.533,19.24l-0.53-0.53l0.53-0.53l0.53-0.53l7.334,7.334l-7.334,7.334l-0.53-0.53l-0.53-0.53l0.53-0.53l5.744-5.743L50.533,19.24  z M47.282,17.959l1.434,0.443l-4.2,13.606l-1.434-0.443L47.282,17.959z M40.734,17.649l0.53,0.53l0.53,0.53l-0.53,0.53l-5.745,5.743  l5.745,5.743l0.53,0.53l-0.53,0.53l-0.53,0.53l-7.335-7.334L40.734,17.649z"/><path d="M49.059,87.46c-0.129,0-0.244-0.006-0.37-0.007H11.345v2.297h73.311v-2.297H49.535C49.377,87.455,49.211,87.46,49.059,87.46  z"/><path d="M20.208,85.953h3.714V73.451c0-0.153,0.047-0.304,0.135-0.429l1.108-1.589l-2.628,1.735L20.208,85.953z"/><path d="M72.715,59.616c-1.479,0.845-3.185,1.335-5.007,1.335c-0.27,0-0.536-0.02-0.8-0.041l-1.939,5.332  c-0.048,1.381-0.612,12.343-6.505,13.465c-1.234,0.235-2.68,0.442-4.21,0.662c-4.487,0.643-11.269,1.614-11.269,3.695  c0,0.327,0.12,0.577,0.387,0.811c0.888,0.772,2.944,1.054,5.369,1.078h0.564c4.12-0.023,9.102-0.713,11.329-1.022  c8.957-1.243,9.938-11.441,9.947-11.544l1.494,0.129c-0.009,0.106-0.958,9.891-9.167,12.438h21.555  c-0.761-3.352-3.262-14.678-3.024-17.766C81.604,66.057,76.33,61.913,72.715,59.616z"/><rect x="15.434" y="67.844" transform="matrix(0.3385 0.941 -0.941 0.3385 83.8011 17.5312)" width="27.995" height="1.047"/><path d="M67.708,42.182c-4.761,0-8.635,3.874-8.635,8.635s3.874,8.635,8.635,8.635c4.762,0,8.635-3.874,8.635-8.635  S72.47,42.182,67.708,42.182z"/><text x="0" y="111" fill="#000000" font-size="5px" font-weight="bold" font-family="'Helvetica Neue', Helvetica, Arial-Unicode, Arial, Sans-serif">Created by glyph.faisalovers</text><text x="0" y="116" fill="#000000" font-size="5px" font-weight="bold" font-family="'Helvetica Neue', Helvetica, Arial-Unicode, Arial, Sans-serif">from the Noun Project</text></svg>